#!OML:ASF F:\VICON\USERDATA\INSTALL\rory3\rory3.ASF
:FULLY-SPECIFIED
:DEGREES
19
root -0.48446699999999976 18.3723 -16.94370000000001 4.279489999999999 6.790099999999988 -3.0734799999999973
lfemur -39.821299999999965 -6.529789999999993 -17.462399999999995
ltibia 54.9098
lfoot -0.17070699999999617 -5.470959999999996
ltoes -17.277799999999985
rfemur 11.074299999999994 2.892709999999999 33.782300000000006
rtibia 31.015400000000028
rfoot 17.597599999999975 -7.06948
rtoes -9.064139999999998
lowerback 1.0 1.5532999999999988 4.970359999999996
upperback -1.37704 2.9474500000000017 1.8142399999999994
thorax -8.010710000000001 1.2534000000000016 -1.4153599999999993
lowerneck -16.570800000000002 -6.113359999999998 -1.9988199999999994
upperneck 15.764399999999998 -8.097129999999996 1.2708600000000032
head 7.716889999999999 -3.85062 -0.18482200000000204
lclavicle 2.877409999999995e-14 -8.348959999999997e-15
lhumerus -67.23549999999997 -7.878899999999993 98.213
lradius 103.38399999999999
lwrist 29.5551
lhand -32.9395 -0.24947799999999923
lfingers 7.12502
lthumb -6.155849999999998 29.6411
rclavicle 2.877409999999995e-14 -8.348959999999997e-15
rhumerus -44.0403 14.355300000000003 -97.4238
rradius 124.497
rwrist -15.546499999999998
rhand -16.673099999999998 1.0
rfingers 7.12502
rthumb 9.550720000000002 17.137300000000018
20
root -0.4514079999999994 18.5362 -15.831499999999952 4.067710000000001 7.330540000000002 -2.734340000000002
lfemur -37.36629999999998 -7.582670000000007 -18.031400000000005
ltibia 43.794099999999986
lfoot -0.7240540000000011 -6.990440000000003
ltoes -22.34189999999999
rfemur 13.473500000000012 3.643980000000002 33.5901
rtibia 30.836500000000072
rfoot 24.18509999999999 -6.57269
rtoes 0.9370329999999962
lowerback 1.0 1.61692 5.277929999999995
upperback -1.7511199999999987 3.058660000000003 1.40959
thorax -8.335720000000002 1.26802 -2.04149
lowerneck -16.388899999999992 -6.154610000000003 -1.9077800000000003
upperneck 16.6684 -8.21979 1.329020000000001
head 7.986769999999999 -3.8876599999999994 -0.20649100000000087
lclavicle -5.565969999999992e-15 9.541659999999991e-15
lhumerus -69.30289999999998 -6.548510000000006 96.8972
lradius 104.16199999999999
lwrist 30.977300000000003
lhand -34.6413 0.9493270000000003
lfingers 7.12502
lthumb -7.798609999999995 30.7855
rclavicle -5.565969999999992e-15 9.541659999999991e-15
rhumerus -45.7568 14.9718 -98.286
rradius 125.73400000000002
rwrist -17.3479
rhand -14.086999999999993 1.0
rfingers 7.12502
rthumb 12.045200000000005 30.48729999999997
21
root -0.909192395846525 18.39738172432801 -5.999262821825335 4.492602837341431 1.899087074318865 -2.998854847916801
lfemur -38.68523699192333 0.4621448908171504 -20.356679965815495
ltibia 37.170327653572805
lfoot 5.980882092384002 -16.60697530727844
ltoes -16.590810499030127
rfemur 11.276361415210168 8.05070787512927 32.64495602151247
rtibia 33.241821394713284
rfoot 29.127138212091513 -5.2943787629372885
rtoes 5.7022707550192795
lowerback 1.0 1.861294390912298 2.889203254751448
upperback -1.0103857355335875 2.8615606437387267 1.0212992704940775
thorax -8.524960647334078 1.1891676357976146 -1.6188188140415183
lowerneck -18.457882208149876 -5.793410260139992 -2.2259887444602873
upperneck 14.433830583979091 -7.777603867874148 1.870931683720749
head 7.761095968951286 -3.650184203853981 -0.12625947620751465
lclavicle 6.533978369923048e-16 -6.207908825347629e-15
lhumerus -67.89470125006262 -7.044490886241541 96.69077584812723
lradius 107.33695542333527
lwrist 36.03846312559927
lhand -33.319487808755106 1.3542211063668674
lfingers 7.12502
lthumb -6.565716636460066 31.310739831644284
rclavicle 5.729625465895866e-16 -5.821362446527849e-15
rhumerus -43.8490553080689 17.129041172668543 -96.9535641051938
rradius 124.35345194135363
rwrist -12.588142158513001
rhand -18.226731889114305 1.0
rfingers 7.12502
rthumb 7.5243267882912015 9.5047509454699
22
root -0.913517452637163 18.377280701983555 -5.2178834206425275 4.536059273715435 2.260594080691855 -3.1262623885512584
lfemur -38.07237247860614 0.5977661153391236 -20.425489856092263
ltibia 31.912262291876022
lfoot 10.667026092772142 -18.559691205057426
ltoes -14.103719950077199
rfemur 10.725816232808175 9.002477253995302 33.24256595120171
rtibia 37.30658741709223
rfoot 25.934916849287262 -5.908150622075423
rtoes 8.980120359024403
lowerback 1.0 1.871251492201627 2.9336997534460103
upperback -0.5792144745568588 2.9258486596539233 1.0525471959499813
thorax -7.6602853613299144 1.2500043932677471 -1.4951437177403086
lowerneck -18.73606551764615 -5.799481321601845 -1.9756414084782195
upperneck 13.028968384176146 -7.909983322478054 2.321825156733673
head 7.239736775140789 -3.6910416281895584 0.037128530927103554
lclavicle -4.013862121586147e-16 -5.303796837852476e-15
lhumerus -67.12004929351356 -7.289430604335563 96.78627765056527
lradius 109.24979440004348
lwrist 38.78610334228124
lhand -32.97371787511642 0.26375824390747776
lfingers 7.12502
lthumb -6.083986299676108 30.280593477904038
rclavicle 5.74682623378417e-17 -4.72372207103087e-15
rhumerus -44.00226129539203 17.56567868712345 -96.65542493529654
rradius 124.32301224972421
rwrist -12.329924836849493
rhand -19.235068606698842 1.0
rfingers 7.12502
rthumb 6.444882495987194 7.64850872019846
23
root -0.9304420346889153 18.35610232933862 -4.802421893969665 4.47309176321451 2.49483223569047 -2.8355923332444526
lfemur -37.154126123641554 0.5867438908172649 -21.047017110894657
ltibia 28.95525967027679
lfoot 13.311585889821261 -15.965840798984043
ltoes -15.383224992749312
rfemur 8.949859346118522 9.028028764822206 32.839064061087875
rtibia 42.94508421006127
rfoot 24.36311757080625 -6.685316471468457
rtoes 8.379636942798383
lowerback 1.0 1.5959527012025942 2.6792133317155606
upperback -0.5099792150461804 2.725470326513382 0.9772777210965764
thorax -7.757652903879038 1.1878593437574019 -1.2952577465779758
lowerneck -18.37361890858283 -5.787851715197606 -2.082819357024038
upperneck 12.03056112869811 -7.92474128339188 2.892423056335475
head 6.953095915610651 -3.6716742111160414 0.28783707267968855
lclavicle -7.272977164870277e-16 -3.3767212612143156e-15
lhumerus -66.89047139123741 -7.682755866805476 97.03196335915307
lradius 111.16902341046594
lwrist 38.867681796561506
lhand -32.248897113076374 -0.6323857283959781
lfingers 7.12502
lthumb -5.231004113577132 29.39377431555036
rclavicle -4.939502825829923e-17 -3.403882338811141e-15
rhumerus -44.4361047840681 17.718382756383924 -97.14672231040052
rradius 124.11000849713943
rwrist -12.92829208264771
rhand -19.540311342366415 1.0
rfingers 7.12502
rthumb 7.404658497576278 6.7306357743959255
